<svg width="385" height="337" version="1.1" xmlns="http://www.w3.org/2000/svg" desc="Created with imagetracer.js version 1.2.6" ><path fill="rgb(0,0,0)" stroke="rgb(0,0,0)" stroke-width="1" opacity="0" d="M 0 0 L 385 0 L 385 337 L 0 337 L 0 0 Z M 193 10 L 170 22 L 63 85 L 61 86 L 61 132 L 83 132 L 83 99 L 193 35 L 239 61 L 269 80 L 278 84 L 303 101 L 303 132 L 324 132 L 324 125 L 323 124 L 323 95 Q 326 93 324 87 L 291 68 L 197 11 L 193 10 Z M 191 48 L 175 57 Q 172 56 173 59 L 143 76 Q 139 75 140 78 L 105 99 L 95 110 L 93 120 L 93 131 L 108 131 L 109 129 L 109 127 L 108 120 L 108 118 L 109 115 L 134 100 Q 137 101 136 98 L 158 86 Q 161 87 160 84 L 192 67 L 201 71 Q 203 70 202 73 L 204 72 L 225 86 L 227 86 L 272 113 Q 280 120 285 131 Q 291 133 293 130 L 293 111 L 291 108 L 280 98 L 224 66 L 199 50 Q 196 47 191 48 Z M 151 106 L 130 153 L 111 202 L 98 229 L 96 237 L 101 237 L 116 246 L 121 237 L 121 234 L 125 227 L 128 216 Q 141 191 151 163 L 153 169 L 154 178 Q 157 182 157 189 L 151 190 L 140 212 L 141 214 L 164 214 L 165 222 L 173 247 L 177 251 L 179 250 L 194 250 L 193 238 L 189 229 L 187 217 L 185 213 L 185 209 L 178 182 L 175 175 L 173 162 L 170 155 L 166 135 L 154 108 Q 155 104 151 106 Z M 191 106 L 190 111 L 190 141 L 189 142 L 190 191 L 193 205 L 195 226 L 198 235 L 198 248 L 197 250 L 210 250 L 213 251 L 214 250 L 214 223 L 215 222 L 215 203 L 214 202 Q 213 196 215 195 L 214 191 L 214 132 L 224 132 L 225 131 Q 240 131 248 138 Q 255 145 258 158 L 258 168 L 251 182 L 242 188 L 232 190 L 230 189 Q 222 188 220 192 L 220 213 L 222 214 L 246 213 L 252 211 L 264 203 Q 274 195 279 182 Q 278 177 281 176 L 281 165 L 282 164 L 281 149 Q 278 147 279 142 L 272 129 Q 262 116 247 109 L 237 107 L 195 107 L 191 106 Z M 343 109 L 341 110 L 336 116 L 336 123 L 339 129 L 344 131 Q 349 132 352 129 L 356 124 L 355 115 Q 352 108 343 109 Z M 16 140 L 15 143 L 16 144 L 16 153 Q 14 154 17 155 L 35 155 L 36 154 Q 42 152 44 155 L 75 155 L 76 154 L 79 155 L 107 155 L 108 153 L 108 141 L 98 141 L 97 140 L 88 140 L 87 141 L 22 141 L 16 140 Z M 293 140 L 290 142 L 294 150 L 294 154 L 297 155 Q 301 156 303 154 L 368 154 L 368 146 L 369 145 L 368 141 L 352 141 L 351 140 L 332 140 L 331 141 L 293 140 Z M 16 163 L 16 175 L 18 176 L 31 176 L 32 175 L 41 175 L 42 176 L 102 176 L 103 175 L 105 176 L 108 175 L 107 171 L 107 164 L 107 163 L 16 163 Z M 298 163 L 294 171 L 294 176 L 367 176 L 368 175 Q 370 168 367 167 L 367 163 L 298 163 Z M 17 183 L 15 185 L 15 197 L 24 197 L 25 198 Q 29 199 31 197 L 97 197 L 98 198 L 102 186 L 101 184 L 39 184 L 38 183 L 17 183 Z M 308 183 L 307 184 L 293 184 L 287 197 L 313 197 L 314 198 L 316 197 L 339 197 L 340 198 Q 344 199 346 197 Q 352 195 354 198 L 358 197 L 367 197 L 367 183 L 325 183 L 324 184 L 315 184 L 313 184 L 308 183 Z M 65 205 L 64 206 L 61 207 L 61 253 L 191 327 L 195 326 L 213 314 L 229 306 L 234 302 L 238 301 L 323 252 L 323 207 L 322 205 L 317 206 L 304 206 L 303 209 L 303 211 L 302 238 L 274 253 L 193 301 L 96 246 L 85 241 L 83 240 L 83 206 L 65 205 Z M 284 205 L 282 206 L 279 210 Q 281 217 278 221 L 274 224 Q 269 223 270 226 L 199 268 L 195 270 L 189 269 L 133 236 L 128 235 L 123 250 L 173 277 L 185 285 L 193 288 L 232 267 L 290 231 L 291 230 L 292 206 Q 290 204 284 205 Z " /><path fill="rgb(0,0,0)" stroke="rgb(0,0,0)" stroke-width="1" opacity="0" d="M 344.5 116 Q 349.3 115.3 350 118.5 Q 350.5 123.5 346.5 124 L 343 123 L 342 118.5 L 344.5 116 Z " /><path fill="rgb(234,231,210)" stroke="rgb(234,231,210)" stroke-width="1" opacity="0.8941176470588236" d="M 192.5 10 L 196.5 11 L 290.5 68 L 324 86.5 Q 325.8 92.7 323 94.5 L 323 123.5 L 324 124.5 L 324 132 L 303 132 L 303 100.5 L 277.5 84 L 268.5 80 L 238.5 61 L 192.5 35 L 141.5 64 L 139 63 L 137.5 67 L 137 65.5 L 138 63.5 L 136 63.5 L 139 61.5 L 138.5 60 L 140.5 61 L 140.5 59 L 142.5 62 L 144 59.5 L 142 58.5 L 144 58 L 145 55.5 L 143 52.5 L 144.5 53 Q 147.1 53.7 146 51 Q 143.3 52.1 144 49.5 L 144.5 48 L 141.5 47 L 140 47.5 Q 140.8 44.9 137.5 46 L 136 46.5 L 139 44.5 L 136.5 43 L 134 46.5 L 134.5 48 L 133 47.5 L 132.5 49 L 132 47.5 L 132.5 46 Q 130.3 45.3 131 47.5 L 129 47.5 Q 129.8 50.1 126.5 49 L 123.5 51 L 123 49 L 192.5 10 Z M 139 42 L 140 46 L 145 47 L 144 46 Q 145 42 142 43 L 142 45 L 141 44 L 139 42 Z " /><path fill="rgb(234,231,210)" stroke="rgb(234,231,210)" stroke-width="1" opacity="0.8941176470588236" d="M 121.5 50 L 122 51.5 L 118.5 54 L 119.5 52 Q 122 52.7 121.5 50 Z " /><path fill="rgb(234,231,210)" stroke="rgb(234,231,210)" stroke-width="1" opacity="0.8941176470588236" d="M 133.5 50 L 136 50.5 L 133.5 51 L 133.5 50 Z " /><path fill="rgb(234,231,210)" stroke="rgb(234,231,210)" stroke-width="1" opacity="0.8941176470588236" d="M 116.5 53 L 114.5 56 L 114 54 L 116.5 53 Z " /><path fill="rgb(234,231,210)" stroke="rgb(234,231,210)" stroke-width="1" opacity="0.8941176470588236" d="M 141.5 56 L 143 56.5 L 140.5 58 L 141.5 56 Z " /><path fill="rgb(234,231,210)" stroke="rgb(234,231,210)" stroke-width="1" opacity="0.8941176470588236" d="M 129.5 64 L 130.5 66 L 129.5 64 Z " /><path fill="rgb(234,231,210)" stroke="rgb(234,231,210)" stroke-width="1" opacity="0.8941176470588236" d="M 135.5 65 L 136 66.5 L 134 67.5 L 135.5 65 Z " /><path fill="rgb(234,231,210)" stroke="rgb(234,231,210)" stroke-width="1" opacity="0.8941176470588236" d="M 81.5 98 L 83 99.5 L 83 132 L 79 131.5 L 81 124.5 L 81.5 98 Z " /><path fill="rgb(234,231,210)" stroke="rgb(234,231,210)" stroke-width="1" opacity="0.8941176470588236" d="M 151 106 Q 154.7 104.5 154 107.5 L 166 134.5 L 170 154.5 L 173 161.5 L 175 174.5 L 178 181.5 L 185 208.5 L 185 212.5 L 187 216.5 L 187 220.5 L 186 220.5 L 182 207.5 L 182 202.5 L 178 194.5 L 179 191.5 L 174 180.5 L 174 175 L 171.5 176 L 173 173.5 L 172.5 172 L 171 172.5 L 172.5 170 L 171 169.5 L 172 166 L 170 166.5 Q 172.3 167.8 169.5 169 L 167.5 170 L 161.5 165 L 162.5 168 L 159.5 167 L 157 167.5 L 155.5 170 L 153 169 L 150.5 163 L 147 168.5 L 147 170.5 L 144.5 178 L 144 174.5 L 147 166.5 Q 145 162.8 143 164.5 Q 145 160.8 147 162.5 Q 147.8 160.3 145.5 161 L 144 160.5 Q 144.8 163.1 141.5 162 L 139 163.5 L 137.5 160 L 137 164 L 135 163.5 L 135 161.5 L 136 159.5 L 133 158 L 131.5 154 L 130 158 L 132 158.5 L 130.5 159 L 128 157.5 L 151 106 Z M 148 163 L 146 165 L 148 166 L 148 163 Z " /><path fill="rgb(234,231,210)" stroke="rgb(234,231,210)" stroke-width="1" opacity="0.8941176470588236" d="M 194.5 107 L 236.5 107 L 246.5 109 Q 262.1 115.9 272 128.5 L 279 141.5 Q 278.2 146.8 281 148.5 L 282 163.5 L 281 164.5 L 281 175.5 L 278.5 179 L 277 175.5 L 279 175.5 L 279 174 L 275 174 L 277 177.5 L 272.5 174 L 271.5 175 L 270 175.5 L 274 177.5 L 272.5 177 L 267 176 L 266.5 178 L 266 176 L 261.5 173 L 259.5 178 L 257 173.5 L 259 169.5 Q 261.4 164.4 260 155.5 Q 257.6 142.9 248.5 137 L 241.5 133 L 233.5 131 L 223.5 131 L 222.5 132 L 214 132 L 214 190.5 L 215 191.5 L 215 193.5 L 214 201.5 L 215 203.5 L 215 205.5 L 214.5 208 L 213 205.5 L 211.5 154 L 211 158 L 209 158.5 L 209 166.5 L 208 166.5 L 207.5 165 L 204.5 167 L 202.5 163 L 199 164.5 L 198.5 167 L 197 162.5 L 198 160.5 L 196.5 158 L 194.5 161 L 193 157.5 L 193 155.5 L 194 152 L 196 151.5 L 193 151 L 194 148.5 L 193 146.5 L 193 144.5 L 193 108.5 L 194.5 107 Z M 195 154 L 195 157 L 197 156 Q 198 153 195 154 Z M 260 172 L 258 174 Q 257 176 260 175 L 261 173 L 260 172 Z " /><path fill="rgb(234,231,210)" stroke="rgb(234,231,210)" stroke-width="1" opacity="0.8941176470588236" d="M 342.5 109 Q 352.3 108.3 355 114.5 L 356 123.5 L 351.5 129 Q 349.2 131.7 343.5 131 L 339 129 L 336 122.5 L 336 115.5 L 340.5 110 L 342.5 109 Z M 345 116 L 342 119 L 343 123 L 347 124 Q 351 124 350 119 Q 349 115 345 116 Z " /><path fill="rgb(234,231,210)" stroke="rgb(234,231,210)" stroke-width="1" opacity="0.8941176470588236" d="M 94.5 140 L 97 140.5 L 94.5 141 L 94.5 140 Z " /><path fill="rgb(234,231,210)" stroke="rgb(234,231,210)" stroke-width="1" opacity="0.8941176470588236" d="M 292.5 140 L 303.5 140 L 305.5 142 L 307.5 141 L 307.5 142 L 305.5 143 Q 304.3 140.8 299.5 142 L 294 143 Q 295.1 145.7 292.5 145 L 291 141.5 L 292.5 140 Z " /><path fill="rgb(234,231,210)" stroke="rgb(234,231,210)" stroke-width="1" opacity="0.8941176470588236" d="M 331.5 140 L 350.5 140 L 351.5 141 L 364 141.5 L 347.5 142 L 346.5 143 L 345.5 142 L 335.5 142 L 333.5 143 L 331.5 143 L 329.5 142 L 324.5 143 L 323.5 142 L 312 141.5 L 330.5 141 L 331.5 140 Z " /><path fill="rgb(234,231,210)" stroke="rgb(234,231,210)" stroke-width="1" opacity="0.8941176470588236" d="M 365.5 141 L 368 141.5 L 369 144.5 L 368 144.5 Q 368.7 141.5 365 143 L 365.5 141 Z " /><path fill="rgb(234,231,210)" stroke="rgb(234,231,210)" stroke-width="1" opacity="0.8941176470588236" d="M 328.5 153 L 363 153.5 L 328.5 154 L 328.5 153 Z " /><path fill="rgb(234,231,210)" stroke="rgb(234,231,210)" stroke-width="1" opacity="0.8941176470588236" d="M 128.5 159 L 129 160.5 L 126.5 164 L 126 162.5 L 128.5 159 Z " /><path fill="rgb(234,231,210)" stroke="rgb(234,231,210)" stroke-width="1" opacity="0.8941176470588236" d="M 210.5 159 L 211 162.5 L 210 162.5 L 210.5 159 Z " /><path fill="rgb(234,231,210)" stroke="rgb(234,231,210)" stroke-width="1" opacity="0.8941176470588236" d="M 54.5 163 L 105.5 163 L 107 164.5 L 105.5 168 L 104.5 165 L 58.5 165 L 54.5 164 L 54.5 163 Z " /><path fill="rgb(234,231,210)" stroke="rgb(234,231,210)" stroke-width="1" opacity="0.8941176470588236" d="M 297.5 163 L 362 163.5 L 358.5 165 L 310.5 165 L 308.5 166 L 305.5 165 Q 301 167 304.5 169 Q 305.8 166.8 307 169.5 L 303 171.5 L 305 172.5 Q 304.3 169.9 307 171 L 307.5 174 L 308 171 L 313.5 171 L 314 173 L 315.5 173 L 316.5 174 L 345.5 175 L 348.5 174 Q 349.8 176.2 354.5 175 L 359.5 174 L 362 175.5 L 294 176 L 294 170.5 L 297.5 163 Z M 299 165 L 296 173 Q 294 174 297 175 L 303 171 Q 300 169 301 166 L 303 166 L 299 165 Z M 311 172 L 309 174 L 311 174 L 311 172 Z " /><path fill="rgb(234,231,210)" stroke="rgb(234,231,210)" stroke-width="1" opacity="0.8941176470588236" d="M 310 167 L 313 168.5 Q 313.9 171.9 308.5 170 L 308.5 169 Q 311.1 169.7 310 167 Z " /><path fill="rgb(234,231,210)" stroke="rgb(234,231,210)" stroke-width="1" opacity="0.8941176470588236" d="M 168.5 171 L 170 174.5 L 168 173.5 L 168.5 171 Z " /><path fill="rgb(234,231,210)" stroke="rgb(234,231,210)" stroke-width="1" opacity="0.8941176470588236" d="M 366 171 L 368 171.5 L 368 173.5 L 366.5 176 L 363 175.5 L 367 173.5 L 366 171 Z " /><path fill="rgb(234,231,210)" stroke="rgb(234,231,210)" stroke-width="1" opacity="0.8941176470588236" d="M 255.5 177 L 256 178.5 L 254 179.5 L 255.5 177 Z " /><path fill="rgb(234,231,210)" stroke="rgb(234,231,210)" stroke-width="1" opacity="0.8941176470588236" d="M 172.5 180 L 173 182 L 171 181.5 L 172.5 180 Z " /><path fill="rgb(234,231,210)" stroke="rgb(234,231,210)" stroke-width="1" opacity="0.8941176470588236" d="M 278.5 180 L 279 181.5 L 276 183.5 L 276.5 181 L 278.5 180 Z " /><path fill="rgb(234,231,210)" stroke="rgb(234,231,210)" stroke-width="1" opacity="0.8941176470588236" d="M 248.5 183 L 249 185 L 247 185 L 247 187 L 244 187 Q 245.1 189.7 242.5 189 L 237.5 191 L 222 191 Q 223.1 193.7 220.5 193 L 221 191.5 Q 220.3 189.3 222.5 190 L 225.5 189 L 227.5 190 L 229.5 189 L 231.5 190 L 241.5 188 L 248.5 183 Z " /><path fill="rgb(234,231,210)" stroke="rgb(234,231,210)" stroke-width="1" opacity="0.8941176470588236" d="M 307.5 183 L 310 183.5 Q 305.9 186.4 297.5 185 L 297.5 184 L 306.5 184 L 307.5 183 Z " /><path fill="rgb(234,231,210)" stroke="rgb(234,231,210)" stroke-width="1" opacity="0.8941176470588236" d="M 324.5 183 L 327.5 184 L 331.5 183 L 334.5 184 L 338.5 183 Q 340 185.5 345.5 184 L 350.5 183 L 352.5 183 L 363 183.5 L 361.5 185 L 320.5 185 L 320.5 184 L 324.5 183 Z " /><path fill="rgb(234,231,210)" stroke="rgb(234,231,210)" stroke-width="1" opacity="0.8941176470588236" d="M 140.5 184 L 141.5 186 L 140.5 184 Z " /><path fill="rgb(234,231,210)" stroke="rgb(234,231,210)" stroke-width="1" opacity="0.8941176470588236" d="M 294.5 184 L 295 186 L 293 185.5 L 294.5 184 Z " /><path fill="rgb(234,231,210)" stroke="rgb(234,231,210)" stroke-width="1" opacity="0.8941176470588236" d="M 275.5 185 L 277 185.5 L 274.5 187 L 275.5 185 Z " /><path fill="rgb(234,231,210)" stroke="rgb(234,231,210)" stroke-width="1" opacity="0.8941176470588236" d="M 153.5 189 L 159 190.5 L 149.5 192 L 150.5 190 L 153.5 189 Z " /><path fill="rgb(234,231,210)" stroke="rgb(234,231,210)" stroke-width="1" opacity="0.8941176470588236" d="M 271.5 194 L 270.5 196 L 271.5 194 Z " /><path fill="rgb(234,231,210)" stroke="rgb(234,231,210)" stroke-width="1" opacity="0.8941176470588236" d="M 353.5 197 L 357 197.5 L 353.5 198 L 353.5 197 Z " /><path fill="rgb(234,231,210)" stroke="rgb(234,231,210)" stroke-width="1" opacity="0.8941176470588236" d="M 318.5 205 Q 322.3 204.3 323 206.5 Q 324.5 214.1 321 213 L 320.5 208 L 305 208 L 304.5 213 L 304 210 L 302 209.5 L 304 208.5 L 303 206 L 317.5 206 L 318.5 205 Z " /><path fill="rgb(234,231,210)" stroke="rgb(234,231,210)" stroke-width="1" opacity="0.8941176470588236" d="M 67.5 206 L 83 206 L 83 239.5 L 192.5 301 L 206.5 293 L 206.5 294 L 193.5 302 L 189.5 302 L 88.5 245 L 81 242 L 81 208 L 69.5 208 L 67.5 206 Z " /><path fill="rgb(234,231,210)" stroke="rgb(234,231,210)" stroke-width="1" opacity="0.8941176470588236" d="M 214.5 217 L 214.5 222 Q 212.3 222.8 213 220.5 L 214.5 217 Z " /><path fill="rgb(234,231,210)" stroke="rgb(234,231,210)" stroke-width="1" opacity="0.8941176470588236" d="M 187.5 222 L 193 237.5 Q 191.5 240.5 190 237.5 Q 192.5 236 189 234.5 Q 189.7 228.8 187 226.5 L 187.5 222 Z " /><path fill="rgb(234,231,210)" stroke="rgb(234,231,210)" stroke-width="1" opacity="0.8941176470588236" d="M 213.5 223 L 214 236.5 L 213 236.5 L 213.5 223 Z " /><path fill="rgb(234,231,210)" stroke="rgb(234,231,210)" stroke-width="1" opacity="0.8941176470588236" d="M 294.5 241 L 295.5 243 L 239.5 275 L 240.5 273 L 294.5 241 Z " /><path fill="rgb(234,231,210)" stroke="rgb(234,231,210)" stroke-width="1" opacity="0.8941176470588236" d="M 165.5 255 L 166.5 257 Q 163.7 257.7 165.5 255 Z " /><path fill="rgb(234,231,210)" stroke="rgb(234,231,210)" stroke-width="1" opacity="0.8941176470588236" d="M 168.5 257 L 174.5 261 L 177 261 Q 178.1 263.7 175.5 263 L 168 259 L 168.5 257 Z " /><path fill="rgb(234,231,210)" stroke="rgb(234,231,210)" stroke-width="1" opacity="0.8941176470588236" d="M 181.5 264 L 182.5 266 L 181.5 264 Z " /><path fill="rgb(234,231,210)" stroke="rgb(234,231,210)" stroke-width="1" opacity="0.8941176470588236" d="M 237.5 275 L 238 277 L 227.5 282 L 228.5 280 L 237.5 275 Z " /><path fill="rgb(234,231,210)" stroke="rgb(234,231,210)" stroke-width="1" opacity="0.8941176470588236" d="M 225.5 282 L 224.5 284 L 221.5 286 L 221 284 L 225.5 282 Z " /><path fill="rgb(105,106,107)" stroke="rgb(105,106,107)" stroke-width="1" opacity="0.9568627450980393" d="M 190.5 48 Q 196.3 47.2 198 50.5 L 198.5 52 L 200 51.5 L 201.5 54 L 217.5 63 L 219 62.5 Q 216.8 63.7 219.5 65 L 221 64.5 L 222.5 67 L 276.5 98 L 289.5 108 L 291 107.5 L 293 111.5 L 293 129.5 Q 291.3 132.8 284.5 131 Q 280.2 119.8 271.5 113 L 226.5 86 L 224.5 86 L 203.5 72 L 202 72.5 Q 202.8 70.3 200.5 71 L 191.5 67 L 160 84 Q 161.3 87 157.5 86 L 136 98 Q 137.3 101 133.5 100 L 109 114.5 L 108 117.5 L 108 119.5 L 109 126.5 L 109 128.5 L 107.5 131 L 93 131 L 93 119.5 L 95 109.5 L 104.5 99 L 140 78 Q 138.8 75 142.5 76 L 173 59 Q 171.9 56.3 174.5 57 L 190.5 48 Z " /><path fill="rgb(105,106,107)" stroke="rgb(105,106,107)" stroke-width="1" opacity="0.9568627450980393" d="M 190.5 112 L 192 114.5 L 192 148 L 189 148 L 189 141.5 L 190 140.5 L 190.5 112 Z " /><path fill="rgb(105,106,107)" stroke="rgb(105,106,107)" stroke-width="1" opacity="0.9568627450980393" d="M 248.5 138 L 258 150.5 L 259 159.5 L 258 159.5 L 257 152.5 L 248.5 138 Z " /><path fill="rgb(105,106,107)" stroke="rgb(105,106,107)" stroke-width="1" opacity="0.9568627450980393" d="M 17.5 142 L 22 146.5 L 22 149 L 25.5 148 L 29 150.5 L 30.5 148 Q 35.6 147.4 37 150.5 Q 36.2 153.1 39.5 152 L 41.5 151 L 40.5 153 L 33.5 152 L 32 152.5 L 31.5 150 L 29 151.5 L 29.5 153 L 22.5 151 L 18 153 L 18 143.5 L 17.5 142 Z " /><path fill="rgb(105,106,107)" stroke="rgb(105,106,107)" stroke-width="1" opacity="0.9568627450980393" d="M 20.5 142 L 23 143.5 L 21.5 144 L 20.5 142 Z " /><path fill="rgb(105,106,107)" stroke="rgb(105,106,107)" stroke-width="1" opacity="0.9568627450980393" d="M 82.5 154 L 85 154.5 L 82.5 155 L 82.5 154 Z " /><path fill="rgb(105,106,107)" stroke="rgb(105,106,107)" stroke-width="1" opacity="0.9568627450980393" d="M 87.5 154 L 92 154.5 L 87.5 155 L 87.5 154 Z " /><path fill="rgb(105,106,107)" stroke="rgb(105,106,107)" stroke-width="1" opacity="0.9568627450980393" d="M 18 165 L 31.5 165 L 40 166.5 L 37 167 L 37.5 169 L 39.5 168 L 38 170.5 L 39.5 172 L 44 172.5 Q 43.3 174.8 39.5 174 L 36.5 173 L 33.5 172 L 33 174 L 27.5 173 L 26.5 174 L 17.5 174 Q 14.7 172.8 17 171.5 L 18 169.5 L 17 167.5 L 18 165 Z " /><path fill="rgb(105,106,107)" stroke="rgb(105,106,107)" stroke-width="1" opacity="0.9568627450980393" d="M 17 185 L 40.5 185 L 43 187.5 Q 42.3 190.1 45 189 L 45 191.5 L 47 195 L 42.5 196 L 20.5 196 L 19.5 197 L 16 193.5 L 16 191.5 L 17 185 Z " /><path fill="rgb(105,106,107)" stroke="rgb(105,106,107)" stroke-width="1" opacity="0.9568627450980393" d="M 59 186 L 85.5 186 L 86 189 Q 83.3 187.9 84 190.5 L 85 193 L 89.5 192 L 91.5 193 L 94.5 192 L 96 195 L 93.5 194 L 91.5 194 L 89.5 193 L 83.5 196 L 70.5 196 Q 69 193.5 63.5 195 L 61 192.5 Q 63.5 191 60 189.5 L 59 186 Z " /><path fill="rgb(105,106,107)" stroke="rgb(105,106,107)" stroke-width="1" opacity="0.9568627450980393" d="M 96.5 186 L 97.5 188 L 96.5 186 Z " /><path fill="rgb(105,106,107)" stroke="rgb(105,106,107)" stroke-width="1" opacity="0.9568627450980393" d="M 88.5 190 L 91 190.5 L 88.5 191 L 88.5 190 Z " /><path fill="rgb(105,106,107)" stroke="rgb(105,106,107)" stroke-width="1" opacity="0.9568627450980393" d="M 96.5 191 L 97.5 193 L 96.5 191 Z " /><path fill="rgb(105,106,107)" stroke="rgb(105,106,107)" stroke-width="1" opacity="0.9568627450980393" d="M 283.5 205 L 292 206 L 291 229.5 L 289.5 231 L 231.5 267 L 192.5 288 L 184.5 285 L 134.5 256 L 133 256.5 L 133.5 255 L 123 250 L 128 235 L 141.5 244 L 190.5 271 L 196.5 268 L 198.5 268 L 270 226 Q 268.7 222.7 273.5 224 L 278 220.5 Q 280.5 217 279 209.5 L 281.5 206 L 283.5 205 Z " /><path fill="rgb(105,106,107)" stroke="rgb(105,106,107)" stroke-width="1" opacity="0.9568627450980393" d="M 63.5 207 L 64.5 208 L 79 208 L 81 213.5 L 80 215.5 L 81 219.5 L 80 222.5 L 81 224.5 L 80 229.5 L 81 234.5 L 80 235.5 L 80 242 L 100.5 252 L 105.5 256 L 116.5 261 L 182.5 299 L 192.5 303 L 276.5 254 L 281 255 L 280.5 253 L 278.5 254 L 278.5 253 L 285.5 249 L 285 250.5 L 284 252.5 L 286.5 253 L 286.5 251 L 288 250.5 L 287.5 249 Q 289.8 249.8 289 247.5 L 292 246.5 L 292.5 245 L 293.5 248 L 296.5 246 L 299 247 L 299.5 244 L 300.5 246 L 302 245.5 L 302.5 247 L 308 246 L 308.5 248 L 310.5 243 L 311 248 Q 314.7 249.3 313 243.5 L 314 243.5 Q 312.9 247.7 317 246 L 317.5 243 L 318 245.5 L 317 249 L 320 248.5 L 319.5 247 L 321 250.5 L 320.5 252 L 318.5 251 L 319.5 254 L 309.5 259 L 307.5 258 L 306.5 261 L 304 260 L 302.5 263 L 237.5 301 L 233.5 302 L 228.5 306 L 212.5 314 L 194.5 326 L 190.5 327 L 138 297 L 137.5 294 L 136.5 296 L 126 289.5 L 125.5 288 L 123.5 288 L 111 280.5 L 111.5 279 L 106.5 277 L 104.5 277 L 101 276 Q 102.3 272.7 97.5 274 L 95.5 271 Q 94 273.5 92.5 270 L 86.5 266 L 84 266 L 83.5 263 L 82 263.5 L 82.5 262 L 80.5 263 L 79.5 261 L 78 261.5 L 78.5 260 L 76.5 259 L 75 259.5 L 75.5 258 L 64.5 252 L 63 252.5 L 63 250.5 L 63.5 207 Z M 301 247 L 299 249 L 301 249 L 301 247 Z M 315 250 L 315 252 L 318 251 L 315 250 Z M 289 251 Q 288 254 291 253 Q 292 250 289 251 Z " /><path fill="rgb(105,106,107)" stroke="rgb(105,106,107)" stroke-width="1" opacity="0.9568627450980393" d="M 110.5 211 L 111.5 213 Q 110.2 210.8 109 213.5 L 110 216 L 108 216.5 L 111 217.5 L 108 218.5 L 111 219 Q 112.1 221.7 109.5 221 L 110 222.5 L 110.5 224 L 112 223.5 L 111 225.5 Q 112.8 223.9 114.5 227 L 116 227 L 116 223 L 114 222.5 L 117 222 L 118 230 L 114.5 228 L 114 229.5 L 115 233 L 118.5 231 L 116.5 234 Q 113.5 233.1 115 237.5 L 116.5 237 L 118.5 238 L 121 236.5 L 118.5 241 L 117 240.5 L 115.5 244 L 111.5 242 Q 109.7 244.7 108 240.5 L 107.5 239 L 105.5 240 L 100 237 L 100 235 Q 97.3 236.1 98 233.5 L 100 231.5 L 101 225.5 L 104.5 219 L 107 217.5 L 105 216.5 L 109 214.5 Q 106.3 212.8 110.5 211 Z M 108 224 L 109 226 Q 110 223 108 224 Z M 111 226 L 109 229 L 113 230 L 111 226 Z M 109 231 L 110 233 L 112 232 L 109 231 Z " /><path fill="rgb(105,106,107)" stroke="rgb(105,106,107)" stroke-width="1" opacity="0.9568627450980393" d="M 165.5 213 L 164.5 215 L 165.5 213 Z " /><path fill="rgb(105,106,107)" stroke="rgb(105,106,107)" stroke-width="1" opacity="0.9568627450980393" d="M 164.5 216 Q 166.8 215.3 166 217.5 L 167 219.5 L 165 218.5 L 164.5 216 Z " /><path fill="rgb(105,106,107)" stroke="rgb(105,106,107)" stroke-width="1" opacity="0.9568627450980393" d="M 167.5 222 L 168 224.5 L 167 224.5 L 167.5 222 Z " /><path fill="rgb(105,106,107)" stroke="rgb(105,106,107)" stroke-width="1" opacity="0.9568627450980393" d="M 122 223 L 124 223.5 L 119.5 227 L 120.5 225 Q 123.1 225.7 122 223 Z " /><path fill="rgb(105,106,107)" stroke="rgb(105,106,107)" stroke-width="1" opacity="0.9568627450980393" d="M 197.5 225 L 199.5 225 L 205 227 L 205 231 L 206.5 231 L 210 232.5 L 208 233.5 L 210 234 L 210.5 236 L 211.5 234 L 212 237 L 208 237.5 L 209.5 240 L 210.5 238 L 212 241.5 Q 213.8 248.3 210.5 250 L 197.5 250 L 197 248.5 L 198 247.5 L 198 234.5 L 197 231.5 L 198 226.5 L 197.5 225 Z " /><path fill="rgb(105,106,107)" stroke="rgb(105,106,107)" stroke-width="1" opacity="0.9568627450980393" d="M 172.5 226 L 173.5 229 Q 175 226.5 180.5 228 L 180 229.5 Q 179.2 232.5 183 231 L 183 233.5 L 186 234.5 Q 186.8 236.8 184.5 236 L 184.5 237 L 186 237.5 L 185 240.5 L 187 243.5 L 188 247 L 186 247.5 Q 188.3 248.8 185.5 250 Q 178.8 251.8 177 248.5 L 176 244.5 L 177 243.5 L 174.5 240 L 176 240.5 Q 176.8 238.3 174.5 239 L 175 237.5 L 174.5 236 L 173 236.5 L 173.5 235 L 172 234.5 L 174 234 L 175 231.5 L 173 231 L 171.5 228 L 170.5 231 L 169 229.5 L 169.5 227 Q 171 229.5 172.5 226 Z M 175 229 L 176 231 Q 177 228 175 229 Z " /><path fill="rgb(182,180,168)" stroke="rgb(182,180,168)" stroke-width="1" opacity="0.9176470588235294" d="M 150.5 35 L 150.5 38 Q 147.5 36.5 150.5 35 Z " /><path fill="rgb(182,180,168)" stroke="rgb(182,180,168)" stroke-width="1" opacity="0.9176470588235294" d="M 140.5 41 L 144 43 L 145 46.5 L 143 47.5 L 145 48.5 L 144 51 Q 147 50 146 53 L 143.5 52 L 143 53.5 L 146 57.5 L 145 57.5 L 144.5 56 L 144 58 L 142 58.5 L 144 59.5 L 142 62.5 L 142.5 64 L 141 63.5 Q 141.8 65.8 139.5 65 L 137 65.5 L 135.5 68 L 134 67.5 L 133.5 69 L 132 68.5 L 130.5 71 L 128.5 72 L 127 71.5 L 125.5 74 L 121.5 75 L 115.5 80 L 89.5 95 L 85.5 96 L 82.5 99 L 81 98.5 L 81 124.5 Q 78.7 125.7 80 130.5 L 78.5 132 L 61 132 L 61 85 L 113.5 55 L 114.5 56 L 118.5 52 L 119.5 53 L 121 52.5 L 120.5 51 L 122 51.5 L 122.5 50 L 124.5 50 L 129 49 L 129.5 47 L 131 47.5 Q 130.3 45.3 132.5 46 L 136 44.5 L 136.5 43 L 138.5 44 L 138.5 42 L 140.5 41 Z M 140 44 L 137 46 L 140 46 L 140 44 Z M 140 46 L 141 48 L 143 47 L 140 46 Z M 134 50 L 134 51 L 136 51 L 134 50 Z M 142 60 L 137 63 L 139 65 L 139 63 L 142 62 L 142 60 Z " /><path fill="rgb(182,180,168)" stroke="rgb(182,180,168)" stroke-width="1" opacity="0.9176470588235294" d="M 200.5 52 L 220 63 L 219.5 65 L 201.5 54 L 200.5 52 Z " /><path fill="rgb(182,180,168)" stroke="rgb(182,180,168)" stroke-width="1" opacity="0.9176470588235294" d="M 147.5 58 L 146.5 60 L 145 59.5 L 147.5 58 Z " /><path fill="rgb(182,180,168)" stroke="rgb(182,180,168)" stroke-width="1" opacity="0.9176470588235294" d="M 145.5 61 L 144.5 63 L 145.5 61 Z " /><path fill="rgb(182,180,168)" stroke="rgb(182,180,168)" stroke-width="1" opacity="0.9176470588235294" d="M 221.5 64 L 250 81.5 L 249.5 83 L 221 65.5 L 221.5 64 Z " /><path fill="rgb(182,180,168)" stroke="rgb(182,180,168)" stroke-width="1" opacity="0.9176470588235294" d="M 251.5 82 L 282.5 100 L 290 106.5 L 289.5 108 L 284.5 103 L 251 84 L 251.5 82 Z " /><path fill="rgb(182,180,168)" stroke="rgb(182,180,168)" stroke-width="1" opacity="0.9176470588235294" d="M 191 106 Q 194.8 104.5 194 107.5 L 193 108.5 L 193 144.5 L 193 146.5 L 194 148.5 L 193 151 L 196 151.5 L 194 152 L 193 155.5 L 193 157.5 L 194.5 161 L 196.5 158 L 198 161.5 L 197 163.5 L 198.5 167 L 200.5 163 L 204 164.5 L 204.5 167 L 207.5 165 L 208.5 167 L 209 158 Q 212.3 159.3 211 154.5 L 212 154.5 L 212 186.5 L 213 187.5 L 213 205.5 Q 216.6 208.4 215 216.5 L 214.5 221 L 213 220.5 L 214 222.5 L 213 223.5 L 213 236.5 L 214 239.5 L 214 249.5 L 212.5 251 L 210 250.5 Q 213.8 248.8 212 241.5 L 210.5 238 L 209.5 240 L 208 237.5 L 212 237 L 211.5 234 L 210.5 236 L 210 234 L 208 233.5 L 210 232.5 L 205 231 L 205 227 L 203.5 227 L 199.5 225 Q 196.9 226.4 197.5 231 L 195 225.5 L 193 204.5 L 190 189.5 L 190 160.5 L 191 158.5 L 189 154.5 L 189 148 L 192 147.5 L 192 114.5 L 190 110.5 L 191 106 Z M 211 159 L 210 163 L 211 163 L 211 159 Z " /><path fill="rgb(182,180,168)" stroke="rgb(182,180,168)" stroke-width="1" opacity="0.9176470588235294" d="M 239.5 133 Q 249.1 135.4 254 142.5 L 258 149.5 L 257 149.5 L 248.5 138 L 239.5 134 L 239.5 133 Z " /><path fill="rgb(182,180,168)" stroke="rgb(182,180,168)" stroke-width="1" opacity="0.9176470588235294" d="M 16 140 L 20.5 141 L 87.5 141 L 91.5 140 L 94.5 141 L 108 141 L 108 152.5 L 107 155 L 97.5 154 L 94.5 155 L 91.5 154 L 85.5 155 L 82.5 154 L 78.5 155 L 73.5 154 L 71.5 155 L 69.5 154 L 68.5 155 L 46.5 155 L 44.5 155 L 35.5 154 L 34.5 155 L 16 155 L 16 140 Z M 19 143 L 18 153 L 23 151 L 25 152 L 29 152 Q 28 149 27 151 L 26 148 L 22 149 Q 23 144 19 143 Z M 31 148 L 29 151 L 32 150 L 32 153 L 34 152 Q 38 153 37 151 Q 36 147 31 148 Z M 41 151 L 38 152 L 38 153 Q 41 154 42 152 L 41 151 Z " /><path fill="rgb(182,180,168)" stroke="rgb(182,180,168)" stroke-width="1" opacity="0.9176470588235294" d="M 305.5 141 L 307.5 142 L 309.5 142 L 311.5 141 L 312.5 142 L 328.5 143 L 330.5 143 L 332.5 142 L 334.5 143 L 335.5 142 L 345.5 142 L 347.5 142 L 363.5 142 L 364.5 141 L 365 143 L 368 143.5 L 368 152.5 Q 367.3 154.8 363.5 154 L 362.5 153 L 328.5 153 L 327.5 154 L 300.5 154 L 297.5 155 L 294 154 Q 294.7 148 292 145 Q 295 146 294 143 L 298.5 143 L 305.5 141 Z " /><path fill="rgb(182,180,168)" stroke="rgb(182,180,168)" stroke-width="1" opacity="0.9176470588235294" d="M 132.5 153 L 136 157.5 L 135 160.5 L 136 162.5 L 135.5 164 Q 138.5 164.9 137 160.5 L 139 161.5 L 139.5 164 Q 140.6 161.3 144 162 L 144.5 160 L 147 161 L 149 166.5 L 147 166.5 L 148 168.5 L 146 168.5 L 143 182.5 L 139 192.5 L 128 215.5 L 123 228.5 L 123 231.5 L 117.5 239 L 117.5 237 L 115.5 238 L 115 234 L 110.5 232 L 109 232.5 Q 108.2 229.9 111.5 231 L 115 233 L 114 228.5 L 117 228.5 L 116.5 230 Q 119.5 230.9 118 226.5 L 117 222 L 114 222.5 L 116 223 L 116 227 L 114.5 227 Q 112.8 223.3 111 226.5 L 113 229.5 L 109 228.5 L 111 224.5 L 109 221.5 L 111 221 Q 112.3 218 108.5 219 L 108.5 218 L 111 217.5 L 105.5 216 L 105.5 217 L 107 217.5 L 103 220.5 L 101 227.5 L 101.5 229 L 100 228.5 L 101 232.5 L 98 233.5 Q 97.3 236.1 100 235 L 100 237 Q 94.4 239.2 96 233.5 L 125.5 166 L 127 165.5 Q 124.5 164 128 162.5 L 129 159.5 L 128.5 158 Q 130.8 158.8 130 156.5 L 132.5 153 Z M 134 155 L 133 158 L 135 158 L 134 155 Z M 110 214 L 108 216 L 110 216 L 110 214 Z M 122 223 L 122 225 L 124 224 L 122 223 Z " /><path fill="rgb(182,180,168)" stroke="rgb(182,180,168)" stroke-width="1" opacity="0.9176470588235294" d="M 195 154 Q 197.7 152.9 197 155.5 L 195 156.5 L 195 154 Z " /><path fill="rgb(182,180,168)" stroke="rgb(182,180,168)" stroke-width="1" opacity="0.9176470588235294" d="M 259.5 155 L 260 166.5 L 258 170.5 L 260.5 172 L 260.5 170 L 264 173.5 Q 261.8 174.8 264.5 176 Q 266.8 175.3 266 177.5 L 267 177.5 Q 266.3 175.3 268.5 176 L 272.5 177 L 272.5 176 L 270 175.5 L 272.5 174 L 275 175.5 L 275 174 L 279 174 L 278 178.5 Q 280.3 179.8 277.5 181 L 276 181.5 Q 279.8 183.3 276.5 185 L 275 185.5 L 276 187.5 L 263.5 203 L 251.5 211 L 245.5 213 L 221.5 214 L 220 212.5 L 220 193 Q 223.1 193.8 222.5 191 L 237.5 191 L 244 189 L 244 187 L 247 187 L 247 185 Q 249.7 186.1 249 183.5 L 256 173.5 L 258 167.5 L 258 160.5 L 259.5 155 Z M 259 175 L 259 178 L 260 178 Q 261 174 259 175 Z M 256 177 L 254 180 L 256 179 L 256 177 Z " /><path fill="rgb(182,180,168)" stroke="rgb(182,180,168)" stroke-width="1" opacity="0.9176470588235294" d="M 16 163 L 53.5 163 L 58.5 165 L 104.5 165 L 107 167.5 L 108 173.5 Q 106.3 177.7 104.5 175 L 101.5 176 L 42.5 176 L 41.5 175 L 31.5 175 L 30.5 176 L 17.5 176 L 16 173.5 L 17.5 174 L 26.5 174 L 27.5 173 L 33 174 L 34.5 171 L 34.5 173 L 37 172.5 L 36.5 171 Q 37.2 174.8 42.5 174 L 43.5 172 Q 39 173 38 170.5 L 39.5 168 L 35.5 170 L 34.5 168 L 37 169 Q 35.8 166 39.5 167 L 39.5 166 L 18 165 L 17 168.5 L 17 170.5 L 16.5 172 L 16 163 Z " /><path fill="rgb(182,180,168)" stroke="rgb(182,180,168)" stroke-width="1" opacity="0.9176470588235294" d="M 362.5 163 L 364.5 163 Q 366.8 162.3 366 164.5 L 366.5 167 L 368 167.5 L 368 169.5 L 366 172.5 L 368 172.5 L 362.5 176 Q 360.8 173.2 355.5 174 Q 354.3 176.2 349.5 175 L 346.5 174 L 345.5 175 L 333.5 175 L 332.5 174 L 316.5 174 L 314 173 L 314 171 L 308 171 L 307.5 174 L 307 171 Q 304.3 169.9 305 172.5 Q 303.3 170.9 301.5 174 L 300.5 173 L 296.5 175 Q 293.8 173.8 296 172.5 L 299 165 L 303 165.5 L 301 166 L 302.5 170 L 305.5 165 L 309.5 166 L 310.5 165 L 358.5 165 L 362.5 163 Z M 310 167 Q 311 170 309 169 L 309 170 Q 314 172 313 169 L 310 167 Z M 306 168 L 304 170 L 307 170 L 306 168 Z " /><path fill="rgb(182,180,168)" stroke="rgb(182,180,168)" stroke-width="1" opacity="0.9176470588235294" d="M 158.5 164 L 159.5 167 L 162 166.5 L 161.5 165 L 167.5 170 L 171 167.5 L 170.5 166 Q 173.1 165.2 172 168.5 L 171.5 170 L 173 170.5 L 173 172.5 L 172 174.5 L 174 175 L 174 180.5 L 179 193.5 Q 176.5 195 180 196.5 L 186 221 L 188 221.5 L 187 226.5 Q 189.7 228.8 189 234.5 L 191 236.5 Q 188.8 237.8 191.5 239 L 193 238.5 L 194 250 L 186 249.5 L 186.5 247 Q 189.1 247.8 188 244.5 L 187 242 Q 184.3 243.1 185 240.5 L 185.5 237 L 184 236.5 L 186 236 L 185.5 234 Q 184.3 236.3 183 233.5 L 183 231 Q 179.2 232.5 180 229.5 L 180.5 228 L 174 228.5 L 176 229 L 175 231.5 L 175.5 233 L 174 232.5 Q 174.8 234.8 172.5 234 L 172.5 235 L 175 236.5 L 174 238.5 L 176 239 L 175 241.5 Q 178.5 243 176 244.5 L 178 251 L 174 248.5 L 167 225.5 L 168 222.5 L 167 222.5 L 166.5 224 L 165 219.5 L 167 219.5 L 166 216 L 164 215.5 L 164.5 214 L 140.5 214 L 140 211.5 L 149.5 192 L 159 190.5 L 157 190 L 153 169 L 155.5 170 L 159 165.5 L 158.5 164 Z M 169 171 L 168 174 L 169 174 L 169 171 Z M 173 180 L 171 182 L 173 182 L 173 180 Z M 174 229 Q 172 232 175 231 L 174 229 Z " /><path fill="rgb(182,180,168)" stroke="rgb(182,180,168)" stroke-width="1" opacity="0.9176470588235294" d="M 169.5 164 L 169 165.5 L 168.5 167 L 168 165.5 L 169.5 164 Z " /><path fill="rgb(182,180,168)" stroke="rgb(182,180,168)" stroke-width="1" opacity="0.9176470588235294" d="M 310.5 172 L 311 174 L 309 173.5 L 310.5 172 Z " /><path fill="rgb(182,180,168)" stroke="rgb(182,180,168)" stroke-width="1" opacity="0.9176470588235294" d="M 16.5 183 L 37.5 183 L 38.5 184 L 100.5 184 L 102 185.5 L 97.5 198 L 96.5 197 L 30.5 197 Q 29.3 199.3 24.5 198 L 20 196.5 L 43 195.5 L 42 193.5 Q 43.3 190.7 44.5 193 L 46 192.5 L 45 189 Q 42.3 190.1 43 187.5 L 40.5 185 L 17 185 L 16 191.5 L 18.5 197 L 15 196.5 L 15 184.5 L 16.5 183 Z M 59 186 L 60 190 Q 63 191 61 193 L 64 195 Q 69 194 71 196 L 84 196 Q 85 193 89 194 L 85 193 L 84 191 Q 83 188 86 189 L 86 186 L 59 186 Z M 89 190 L 89 191 L 91 191 L 89 190 Z M 93 192 Q 93 196 95 193 L 93 192 Z M 44 193 L 43 195 L 47 195 L 47 194 L 46 194 L 44 193 Z M 96 193 L 94 195 L 96 195 L 96 193 Z " /><path fill="rgb(182,180,168)" stroke="rgb(182,180,168)" stroke-width="1" opacity="0.9176470588235294" d="M 334.5 183 L 337 183.5 L 334.5 184 L 334.5 183 Z " /><path fill="rgb(182,180,168)" stroke="rgb(182,180,168)" stroke-width="1" opacity="0.9176470588235294" d="M 339.5 183 L 346 183.5 L 339.5 184 L 339.5 183 Z " /><path fill="rgb(182,180,168)" stroke="rgb(182,180,168)" stroke-width="1" opacity="0.9176470588235294" d="M 363.5 183 L 367 184.5 L 367 197 L 343.5 197 L 340.5 198 L 339.5 197 L 287 197 L 292 186 L 295 186 Q 293.9 183.3 296.5 184 L 297.5 185 L 306.5 185 L 307.5 184 L 319.5 184 L 320.5 185 L 361.5 185 L 363.5 183 Z " /><path fill="rgb(182,180,168)" stroke="rgb(182,180,168)" stroke-width="1" opacity="0.9176470588235294" d="M 64.5 205 L 67 205 Q 65.9 207.7 68.5 207 L 68.5 208 L 63.5 207 L 63 250.5 L 80 261.5 L 80.5 263 L 82.5 262 L 84 265.5 L 82.5 265 L 61 252.5 L 61 206.5 L 63.5 206 L 64.5 205 Z " /><path fill="rgb(182,180,168)" stroke="rgb(182,180,168)" stroke-width="1" opacity="0.9176470588235294" d="M 79 208 Q 82.3 206.7 81 211.5 L 80 211.5 L 79 208 Z " /><path fill="rgb(182,180,168)" stroke="rgb(182,180,168)" stroke-width="1" opacity="0.9176470588235294" d="M 305 208 L 320.5 208 L 321 213 L 323 213 L 323 251.5 L 319.5 253 L 316.5 252 Q 314.3 252.8 315 250.5 L 312 249.5 L 312.5 248 Q 309.1 248.9 311 243.5 L 309 244.5 L 308.5 248 L 308 246 L 303 246.5 L 303.5 248 L 301.5 245 L 300 245.5 L 299.5 244 L 299 247 Q 296.3 245.9 297 248.5 L 296 248.5 Q 296.8 246.3 294.5 247 L 293 247.5 L 292.5 245 L 290.5 248 L 289 247.5 Q 289.8 249.8 287.5 249 L 287.5 251 L 286 251.5 L 286.5 253 L 283.5 252 L 282.5 254 L 282 252 L 280 252.5 L 281 255 L 276.5 254 L 273.5 256 L 273.5 255 L 282.5 250 L 285 251.5 L 284 249.5 L 296 242.5 Q 293.8 241.3 296.5 240 L 298 240.5 Q 297.3 238.3 299.5 239 L 302 238 L 303 235.5 L 302 234.5 L 302 223.5 L 303 222.5 L 303.5 210 L 304.5 213 L 305 208 Z M 314 243 L 313 248 Q 315 251 320 251 L 321 252 L 320 249 Q 315 250 317 246 L 314 246 L 314 243 Z M 318 243 L 317 246 L 318 246 L 318 243 Z " /><path fill="rgb(182,180,168)" stroke="rgb(182,180,168)" stroke-width="1" opacity="0.9176470588235294" d="M 80.5 220 L 81 222.5 L 80 222.5 L 80.5 220 Z " /><path fill="rgb(182,180,168)" stroke="rgb(182,180,168)" stroke-width="1" opacity="0.9176470588235294" d="M 106.5 223 L 109 224 L 108.5 226 L 106.5 223 Z " /><path fill="rgb(182,180,168)" stroke="rgb(182,180,168)" stroke-width="1" opacity="0.9176470588235294" d="M 80.5 225 L 81 229.5 L 80 229.5 L 80.5 225 Z " /><path fill="rgb(182,180,168)" stroke="rgb(182,180,168)" stroke-width="1" opacity="0.9176470588235294" d="M 80.5 235 L 81 241.5 L 80 241.5 L 80.5 235 Z " /><path fill="rgb(182,180,168)" stroke="rgb(182,180,168)" stroke-width="1" opacity="0.9176470588235294" d="M 130.5 235 L 144 243.5 L 143.5 245 L 132.5 238 L 130.5 235 Z " /><path fill="rgb(182,180,168)" stroke="rgb(182,180,168)" stroke-width="1" opacity="0.9176470588235294" d="M 107.5 239 L 108.5 241 L 110 240.5 Q 108.5 243.5 107 240.5 L 107.5 239 Z " /><path fill="rgb(182,180,168)" stroke="rgb(182,180,168)" stroke-width="1" opacity="0.9176470588235294" d="M 117.5 240 L 118 242.5 L 115.5 246 L 111 244 Q 109.9 241.3 112.5 242 L 115.5 244 L 117.5 240 Z " /><path fill="rgb(182,180,168)" stroke="rgb(182,180,168)" stroke-width="1" opacity="0.9176470588235294" d="M 145.5 244 L 165 255 L 164.5 257 L 145 246 L 145.5 244 Z " /><path fill="rgb(182,180,168)" stroke="rgb(182,180,168)" stroke-width="1" opacity="0.9176470588235294" d="M 300.5 247 L 301 249 L 299 248.5 L 300.5 247 Z " /><path fill="rgb(182,180,168)" stroke="rgb(182,180,168)" stroke-width="1" opacity="0.9176470588235294" d="M 97.5 250 L 98.5 252 L 97.5 250 Z " /><path fill="rgb(182,180,168)" stroke="rgb(182,180,168)" stroke-width="1" opacity="0.9176470588235294" d="M 289 251 Q 292 250 291 253 Q 288 254 289 251 Z " /><path fill="rgb(182,180,168)" stroke="rgb(182,180,168)" stroke-width="1" opacity="0.9176470588235294" d="M 104.5 254 L 108 256.5 L 106.5 256 L 104.5 254 Z " /><path fill="rgb(182,180,168)" stroke="rgb(182,180,168)" stroke-width="1" opacity="0.9176470588235294" d="M 284.5 254 L 283.5 256 L 284.5 254 Z " /><path fill="rgb(182,180,168)" stroke="rgb(182,180,168)" stroke-width="1" opacity="0.9176470588235294" d="M 271.5 256 L 270.5 258 L 271.5 256 Z " /><path fill="rgb(182,180,168)" stroke="rgb(182,180,168)" stroke-width="1" opacity="0.9176470588235294" d="M 309.5 257 L 309 258.5 L 308.5 260 L 307.5 258 L 309.5 257 Z " /><path fill="rgb(182,180,168)" stroke="rgb(182,180,168)" stroke-width="1" opacity="0.9176470588235294" d="M 172.5 259 L 171.5 261 L 172.5 259 Z " /><path fill="rgb(182,180,168)" stroke="rgb(182,180,168)" stroke-width="1" opacity="0.9176470588235294" d="M 266.5 259 L 267.5 261 L 265 260.5 L 266.5 259 Z " /><path fill="rgb(182,180,168)" stroke="rgb(182,180,168)" stroke-width="1" opacity="0.9176470588235294" d="M 272.5 259 L 271.5 261 L 272.5 259 Z " /><path fill="rgb(182,180,168)" stroke="rgb(182,180,168)" stroke-width="1" opacity="0.9176470588235294" d="M 304 260 L 306 260.5 L 304 261.5 L 304 260 Z " /><path fill="rgb(182,180,168)" stroke="rgb(182,180,168)" stroke-width="1" opacity="0.9176470588235294" d="M 173.5 261 L 174.5 263 L 173.5 261 Z " /><path fill="rgb(182,180,168)" stroke="rgb(182,180,168)" stroke-width="1" opacity="0.9176470588235294" d="M 263.5 261 L 262.5 263 L 263.5 261 Z " /><path fill="rgb(182,180,168)" stroke="rgb(182,180,168)" stroke-width="1" opacity="0.9176470588235294" d="M 177.5 262 L 178.5 264 L 179.5 263 L 182.5 266 Q 188.3 266.7 191 270.5 L 189.5 271 L 176 263.5 L 177.5 262 Z " /><path fill="rgb(182,180,168)" stroke="rgb(182,180,168)" stroke-width="1" opacity="0.9176470588235294" d="M 258.5 264 L 257.5 266 L 255.5 267 L 256.5 265 L 258.5 264 Z " /><path fill="rgb(182,180,168)" stroke="rgb(182,180,168)" stroke-width="1" opacity="0.9176470588235294" d="M 124.5 265 L 125.5 267 L 124.5 265 Z " /><path fill="rgb(182,180,168)" stroke="rgb(182,180,168)" stroke-width="1" opacity="0.9176470588235294" d="M 85.5 266 L 88.5 268 L 90 267.5 Q 88.7 270.3 87.5 268 L 85.5 266 Z " /><path fill="rgb(182,180,168)" stroke="rgb(182,180,168)" stroke-width="1" opacity="0.9176470588235294" d="M 253.5 267 L 252.5 269 L 250.5 270 L 251.5 268 L 253.5 267 Z " /><path fill="rgb(182,180,168)" stroke="rgb(182,180,168)" stroke-width="1" opacity="0.9176470588235294" d="M 130.5 269 L 133 270.5 L 131.5 270 L 130.5 269 Z " /><path fill="rgb(182,180,168)" stroke="rgb(182,180,168)" stroke-width="1" opacity="0.9176470588235294" d="M 92.5 270 L 93.5 272 L 92.5 270 Z " /><path fill="rgb(182,180,168)" stroke="rgb(182,180,168)" stroke-width="1" opacity="0.9176470588235294" d="M 248.5 270 L 247.5 272 L 245.5 273 L 246.5 271 L 248.5 270 Z " /><path fill="rgb(182,180,168)" stroke="rgb(182,180,168)" stroke-width="1" opacity="0.9176470588235294" d="M 95.5 271 L 97 273.5 L 95 272.5 L 95.5 271 Z " /><path fill="rgb(182,180,168)" stroke="rgb(182,180,168)" stroke-width="1" opacity="0.9176470588235294" d="M 99.5 274 Q 101.8 273.3 101 275.5 L 99.5 274 Z " /><path fill="rgb(182,180,168)" stroke="rgb(182,180,168)" stroke-width="1" opacity="0.9176470588235294" d="M 238.5 274 L 240.5 275 L 242 274.5 L 238.5 277 L 238.5 274 Z " /><path fill="rgb(182,180,168)" stroke="rgb(182,180,168)" stroke-width="1" opacity="0.9176470588235294" d="M 104.5 277 L 107.5 278 L 112 279.5 L 111.5 281 L 117 284.5 L 114.5 283 L 105.5 279 L 104.5 277 Z " /><path fill="rgb(182,180,168)" stroke="rgb(182,180,168)" stroke-width="1" opacity="0.9176470588235294" d="M 231.5 278 L 233.5 279 L 235 278.5 L 231.5 281 L 231.5 278 Z " /><path fill="rgb(182,180,168)" stroke="rgb(182,180,168)" stroke-width="1" opacity="0.9176470588235294" d="M 149.5 279 L 150.5 281 L 149.5 279 Z " /><path fill="rgb(182,180,168)" stroke="rgb(182,180,168)" stroke-width="1" opacity="0.9176470588235294" d="M 226.5 281 L 227.5 283 L 222.5 286 L 223.5 284 L 226 282.5 L 226.5 281 Z " /><path fill="rgb(182,180,168)" stroke="rgb(182,180,168)" stroke-width="1" opacity="0.9176470588235294" d="M 219.5 285 Q 222.1 284.3 221 287 L 215.5 290 L 214 289.5 L 212.5 292 L 203.5 297 L 205.5 294 L 208.5 292 L 219.5 285 Z " /><path fill="rgb(182,180,168)" stroke="rgb(182,180,168)" stroke-width="1" opacity="0.9176470588235294" d="M 129.5 291 L 130.5 293 L 129.5 291 Z " /><path fill="rgb(182,180,168)" stroke="rgb(182,180,168)" stroke-width="1" opacity="0.9176470588235294" d="M 171.5 292 L 174 293.5 L 172.5 293 L 171.5 292 Z " /><path fill="rgb(182,180,168)" stroke="rgb(182,180,168)" stroke-width="1" opacity="0.9176470588235294" d="M 137.5 294 L 138 296.5 L 137 296.5 L 137.5 294 Z " /><path fill="rgb(182,180,168)" stroke="rgb(182,180,168)" stroke-width="1" opacity="0.9176470588235294" d="M 201.5 297 L 200.5 299 L 198.5 300 L 199.5 298 L 201.5 297 Z " /><path fill="rgb(182,180,168)" stroke="rgb(182,180,168)" stroke-width="1" opacity="0.9176470588235294" d="M 143.5 299 L 144.5 301 L 143.5 299 Z " /><path fill="rgb(182,180,168)" stroke="rgb(182,180,168)" stroke-width="1" opacity="0.9176470588235294" d="M 190.5 302 L 193 302.5 L 190.5 303 L 190.5 302 Z " /></svg>